<svg xmlns="http://www.w3.org/2000/svg" version="1.1" xmlns:xlink="http://www.w3.org/1999/xlink" xmlns:svgjs="http://svgjs.dev/svgjs" viewBox="0 0 800 800" opacity="0.6" width="800" height="800"><g stroke-width="0.5" stroke="hsla(261, 2%, 13%, 1.00)" fill="none"><circle r="2.5" cx="0" cy="0" fill="hsla(261, 2%, 13%, 1.00)" stroke="none"></circle><circle r="2.5" cx="47.05882352941177" cy="0" fill="hsl(316, 73%, 52%)" stroke="none"></circle><circle r="2.5" cx="94.11764705882354" cy="0" fill="hsla(261, 2%, 13%, 1.00)" stroke="none"></circle><circle r="2.5" cx="141.1764705882353" cy="0" fill="hsl(316, 73%, 52%)" stroke="none"></circle><circle r="2.5" cx="188.23529411764707" cy="0" fill="hsla(261, 2%, 13%, 1.00)" stroke="none"></circle><circle r="2.5" cx="235.29411764705884" cy="0" fill="hsl(316, 73%, 52%)" stroke="none"></circle><circle r="2.5" cx="282.3529411764706" cy="0" fill="hsla(261, 2%, 13%, 1.00)" stroke="none"></circle><circle r="2.5" cx="329.4117647058824" cy="0" fill="hsl(316, 73%, 52%)" stroke="none"></circle><circle r="2.5" cx="376.47058823529414" cy="0" fill="hsla(261, 2%, 13%, 1.00)" stroke="none"></circle><circle r="2.5" cx="423.5294117647059" cy="0" fill="hsl(316, 73%, 52%)" stroke="none"></circle><circle r="2.5" cx="470.5882352941177" cy="0" fill="hsla(261, 2%, 13%, 1.00)" stroke="none"></circle><circle r="2.5" cx="517.6470588235295" cy="0" fill="hsl(316, 73%, 52%)" stroke="none"></circle><circle r="2.5" cx="564.7058823529412" cy="0" fill="hsla(261, 2%, 13%, 1.00)" stroke="none"></circle><circle r="2.5" cx="611.7647058823529" cy="0" fill="hsl(316, 73%, 52%)" stroke="none"></circle><circle r="2.5" cx="658.8235294117646" cy="0" fill="hsla(261, 2%, 13%, 1.00)" stroke="none"></circle><circle r="2.5" cx="705.8823529411764" cy="0" fill="hsl(316, 73%, 52%)" stroke="none"></circle><circle r="2.5" cx="752.9411764705881" cy="0" fill="hsla(261, 2%, 13%, 1.00)" stroke="none"></circle><circle r="2.5" cx="799.9999999999998" cy="0" fill="hsl(316, 73%, 52%)" stroke="none"></circle><circle r="2.5" cx="0" cy="44.44444444444444" fill="hsla(261, 2%, 13%, 1.00)" stroke="none"></circle><circle r="2.5" cx="47.05882352941177" cy="44.44444444444444" fill="hsl(316, 73%, 52%)" stroke="none"></circle><circle r="2.5" cx="94.11764705882354" cy="44.44444444444444" fill="hsla(261, 2%, 13%, 1.00)" stroke="none"></circle><circle r="2.5" cx="141.1764705882353" cy="44.44444444444444" fill="hsl(316, 73%, 52%)" stroke="none"></circle><circle r="2.5" cx="188.23529411764707" cy="44.44444444444444" fill="hsla(261, 2%, 13%, 1.00)" stroke="none"></circle><circle r="2.5" cx="235.29411764705884" cy="44.44444444444444" fill="hsl(316, 73%, 52%)" stroke="none"></circle><circle r="2.5" cx="282.3529411764706" cy="44.44444444444444" fill="hsla(261, 2%, 13%, 1.00)" stroke="none"></circle><circle r="2.5" cx="329.4117647058824" cy="44.44444444444444" fill="hsl(316, 73%, 52%)" stroke="none"></circle><circle r="2.5" cx="376.47058823529414" cy="44.44444444444444" fill="hsla(261, 2%, 13%, 1.00)" stroke="none"></circle><circle r="2.5" cx="423.5294117647059" cy="44.44444444444444" fill="hsl(316, 73%, 52%)" stroke="none"></circle><circle r="2.5" cx="470.5882352941177" cy="44.44444444444444" fill="hsla(261, 2%, 13%, 1.00)" stroke="none"></circle><circle r="2.5" cx="517.6470588235295" cy="44.44444444444444" fill="hsl(316, 73%, 52%)" stroke="none"></circle><circle r="2.5" cx="564.7058823529412" cy="44.44444444444444" fill="hsla(261, 2%, 13%, 1.00)" stroke="none"></circle><circle r="2.5" cx="611.7647058823529" cy="44.44444444444444" fill="hsl(316, 73%, 52%)" stroke="none"></circle><circle r="2.5" cx="658.8235294117646" cy="44.44444444444444" fill="hsla(261, 2%, 13%, 1.00)" stroke="none"></circle><circle r="2.5" cx="705.8823529411764" cy="44.44444444444444" fill="hsl(316, 73%, 52%)" stroke="none"></circle><circle r="2.5" cx="752.9411764705881" cy="44.44444444444444" fill="hsla(261, 2%, 13%, 1.00)" stroke="none"></circle><circle r="2.5" cx="799.9999999999998" cy="44.44444444444444" fill="hsl(316, 73%, 52%)" stroke="none"></circle><circle r="2.5" cx="0" cy="88.88888888888889" fill="hsla(261, 2%, 13%, 1.00)" stroke="none"></circle><circle r="2.5" cx="47.05882352941177" cy="88.88888888888889" fill="hsl(316, 73%, 52%)" stroke="none"></circle><circle r="2.5" cx="94.11764705882354" cy="88.88888888888889" fill="hsla(261, 2%, 13%, 1.00)" stroke="none"></circle><circle r="2.5" cx="141.1764705882353" cy="88.88888888888889" fill="hsl(316, 73%, 52%)" stroke="none"></circle><circle r="2.5" cx="188.23529411764707" cy="88.88888888888889" fill="hsla(261, 2%, 13%, 1.00)" stroke="none"></circle><circle r="2.5" cx="235.29411764705884" cy="88.88888888888889" fill="hsl(316, 73%, 52%)" stroke="none"></circle><circle r="2.5" cx="282.3529411764706" cy="88.88888888888889" fill="hsla(261, 2%, 13%, 1.00)" stroke="none"></circle><circle r="2.5" cx="329.4117647058824" cy="88.88888888888889" fill="hsl(316, 73%, 52%)" stroke="none"></circle><circle r="2.5" cx="376.47058823529414" cy="88.88888888888889" fill="hsla(261, 2%, 13%, 1.00)" stroke="none"></circle><circle r="2.5" cx="423.5294117647059" cy="88.88888888888889" fill="hsl(316, 73%, 52%)" stroke="none"></circle><circle r="2.5" cx="470.5882352941177" cy="88.88888888888889" fill="hsla(261, 2%, 13%, 1.00)" stroke="none"></circle><circle r="2.5" cx="517.6470588235295" cy="88.88888888888889" fill="hsl(316, 73%, 52%)" stroke="none"></circle><circle r="2.5" cx="564.7058823529412" cy="88.88888888888889" fill="hsla(261, 2%, 13%, 1.00)" stroke="none"></circle><circle r="2.5" cx="611.7647058823529" cy="88.88888888888889" fill="hsl(316, 73%, 52%)" stroke="none"></circle><circle r="2.5" cx="658.8235294117646" cy="88.88888888888889" fill="hsla(261, 2%, 13%, 1.00)" stroke="none"></circle><circle r="2.5" cx="705.8823529411764" cy="88.88888888888889" fill="hsl(316, 73%, 52%)" stroke="none"></circle><circle r="2.5" cx="752.9411764705881" cy="88.88888888888889" fill="hsla(261, 2%, 13%, 1.00)" stroke="none"></circle><circle r="2.5" cx="799.9999999999998" cy="88.88888888888889" fill="hsl(316, 73%, 52%)" stroke="none"></circle><circle r="2.5" cx="0" cy="133.33333333333331" fill="hsla(261, 2%, 13%, 1.00)" stroke="none"></circle><circle r="2.5" cx="47.05882352941177" cy="133.33333333333331" fill="hsl(316, 73%, 52%)" stroke="none"></circle><circle r="2.5" cx="94.11764705882354" cy="133.33333333333331" fill="hsla(261, 2%, 13%, 1.00)" stroke="none"></circle><circle r="2.5" cx="141.1764705882353" cy="133.33333333333331" fill="hsl(316, 73%, 52%)" stroke="none"></circle><circle r="2.5" cx="188.23529411764707" cy="133.33333333333331" fill="hsla(261, 2%, 13%, 1.00)" stroke="none"></circle><circle r="2.5" cx="235.29411764705884" cy="133.33333333333331" fill="hsl(316, 73%, 52%)" stroke="none"></circle><circle r="2.5" cx="282.3529411764706" cy="133.33333333333331" fill="hsla(261, 2%, 13%, 1.00)" stroke="none"></circle><circle r="2.5" cx="329.4117647058824" cy="133.33333333333331" fill="hsl(316, 73%, 52%)" stroke="none"></circle><circle r="2.5" cx="376.47058823529414" cy="133.33333333333331" fill="hsla(261, 2%, 13%, 1.00)" stroke="none"></circle><circle r="2.5" cx="423.5294117647059" cy="133.33333333333331" fill="hsl(316, 73%, 52%)" stroke="none"></circle><circle r="2.5" cx="470.5882352941177" cy="133.33333333333331" fill="hsla(261, 2%, 13%, 1.00)" stroke="none"></circle><circle r="2.5" cx="517.6470588235295" cy="133.33333333333331" fill="hsl(316, 73%, 52%)" stroke="none"></circle><circle r="2.5" cx="564.7058823529412" cy="133.33333333333331" fill="hsla(261, 2%, 13%, 1.00)" stroke="none"></circle><circle r="2.5" cx="611.7647058823529" cy="133.33333333333331" fill="hsl(316, 73%, 52%)" stroke="none"></circle><circle r="2.5" cx="658.8235294117646" cy="133.33333333333331" fill="hsla(261, 2%, 13%, 1.00)" stroke="none"></circle><circle r="2.5" cx="705.8823529411764" cy="133.33333333333331" fill="hsl(316, 73%, 52%)" stroke="none"></circle><circle r="2.5" cx="752.9411764705881" cy="133.33333333333331" fill="hsla(261, 2%, 13%, 1.00)" stroke="none"></circle><circle r="2.5" cx="799.9999999999998" cy="133.33333333333331" fill="hsl(316, 73%, 52%)" stroke="none"></circle><circle r="2.5" cx="0" cy="177.77777777777777" fill="hsla(261, 2%, 13%, 1.00)" stroke="none"></circle><circle r="2.5" cx="47.05882352941177" cy="177.77777777777777" fill="hsl(316, 73%, 52%)" stroke="none"></circle><circle r="2.5" cx="94.11764705882354" cy="177.77777777777777" fill="hsla(261, 2%, 13%, 1.00)" stroke="none"></circle><circle r="2.5" cx="141.1764705882353" cy="177.77777777777777" fill="hsl(316, 73%, 52%)" stroke="none"></circle><circle r="2.5" cx="188.23529411764707" cy="177.77777777777777" fill="hsla(261, 2%, 13%, 1.00)" stroke="none"></circle><circle r="2.5" cx="235.29411764705884" cy="177.77777777777777" fill="hsl(316, 73%, 52%)" stroke="none"></circle><circle r="2.5" cx="282.3529411764706" cy="177.77777777777777" fill="hsla(261, 2%, 13%, 1.00)" stroke="none"></circle><circle r="2.5" cx="329.4117647058824" cy="177.77777777777777" fill="hsl(316, 73%, 52%)" stroke="none"></circle><circle r="2.5" cx="376.47058823529414" cy="177.77777777777777" fill="hsla(261, 2%, 13%, 1.00)" stroke="none"></circle><circle r="2.5" cx="423.5294117647059" cy="177.77777777777777" fill="hsl(316, 73%, 52%)" stroke="none"></circle><circle r="2.5" cx="470.5882352941177" cy="177.77777777777777" fill="hsla(261, 2%, 13%, 1.00)" stroke="none"></circle><circle r="2.5" cx="517.6470588235295" cy="177.77777777777777" fill="hsl(316, 73%, 52%)" stroke="none"></circle><circle r="2.5" cx="564.7058823529412" cy="177.77777777777777" fill="hsla(261, 2%, 13%, 1.00)" stroke="none"></circle><circle r="2.5" cx="611.7647058823529" cy="177.77777777777777" fill="hsl(316, 73%, 52%)" stroke="none"></circle><circle r="2.5" cx="658.8235294117646" cy="177.77777777777777" fill="hsla(261, 2%, 13%, 1.00)" stroke="none"></circle><circle r="2.5" cx="705.8823529411764" cy="177.77777777777777" fill="hsl(316, 73%, 52%)" stroke="none"></circle><circle r="2.5" cx="752.9411764705881" cy="177.77777777777777" fill="hsla(261, 2%, 13%, 1.00)" stroke="none"></circle><circle r="2.5" cx="799.9999999999998" cy="177.77777777777777" fill="hsl(316, 73%, 52%)" stroke="none"></circle><circle r="2.5" cx="0" cy="222.22222222222223" fill="hsla(261, 2%, 13%, 1.00)" stroke="none"></circle><circle r="2.5" cx="47.05882352941177" cy="222.22222222222223" fill="hsl(316, 73%, 52%)" stroke="none"></circle><circle r="2.5" cx="94.11764705882354" cy="222.22222222222223" fill="hsla(261, 2%, 13%, 1.00)" stroke="none"></circle><circle r="2.5" cx="141.1764705882353" cy="222.22222222222223" fill="hsl(316, 73%, 52%)" stroke="none"></circle><circle r="2.5" cx="188.23529411764707" cy="222.22222222222223" fill="hsla(261, 2%, 13%, 1.00)" stroke="none"></circle><circle r="2.5" cx="235.29411764705884" cy="222.22222222222223" fill="hsl(316, 73%, 52%)" stroke="none"></circle><circle r="2.5" cx="282.3529411764706" cy="222.22222222222223" fill="hsla(261, 2%, 13%, 1.00)" stroke="none"></circle><circle r="2.5" cx="329.4117647058824" cy="222.22222222222223" fill="hsl(316, 73%, 52%)" stroke="none"></circle><circle r="2.5" cx="376.47058823529414" cy="222.22222222222223" fill="hsla(261, 2%, 13%, 1.00)" stroke="none"></circle><circle r="2.5" cx="423.5294117647059" cy="222.22222222222223" fill="hsl(316, 73%, 52%)" stroke="none"></circle><circle r="2.5" cx="470.5882352941177" cy="222.22222222222223" fill="hsla(261, 2%, 13%, 1.00)" stroke="none"></circle><circle r="2.5" cx="517.6470588235295" cy="222.22222222222223" fill="hsl(316, 73%, 52%)" stroke="none"></circle><circle r="2.5" cx="564.7058823529412" cy="222.22222222222223" fill="hsla(261, 2%, 13%, 1.00)" stroke="none"></circle><circle r="2.5" cx="611.7647058823529" cy="222.22222222222223" fill="hsl(316, 73%, 52%)" stroke="none"></circle><circle r="2.5" cx="658.8235294117646" cy="222.22222222222223" fill="hsla(261, 2%, 13%, 1.00)" stroke="none"></circle><circle r="2.5" cx="705.8823529411764" cy="222.22222222222223" fill="hsl(316, 73%, 52%)" stroke="none"></circle><circle r="2.5" cx="752.9411764705881" cy="222.22222222222223" fill="hsla(261, 2%, 13%, 1.00)" stroke="none"></circle><circle r="2.5" cx="799.9999999999998" cy="222.22222222222223" fill="hsl(316, 73%, 52%)" stroke="none"></circle><circle r="2.5" cx="0" cy="266.6666666666667" fill="hsla(261, 2%, 13%, 1.00)" stroke="none"></circle><circle r="2.5" cx="47.05882352941177" cy="266.6666666666667" fill="hsl(316, 73%, 52%)" stroke="none"></circle><circle r="2.5" cx="94.11764705882354" cy="266.6666666666667" fill="hsla(261, 2%, 13%, 1.00)" stroke="none"></circle><circle r="2.5" cx="141.1764705882353" cy="266.6666666666667" fill="hsl(316, 73%, 52%)" stroke="none"></circle><circle r="2.5" cx="188.23529411764707" cy="266.6666666666667" fill="hsla(261, 2%, 13%, 1.00)" stroke="none"></circle><circle r="2.5" cx="235.29411764705884" cy="266.6666666666667" fill="hsl(316, 73%, 52%)" stroke="none"></circle><circle r="2.5" cx="282.3529411764706" cy="266.6666666666667" fill="hsla(261, 2%, 13%, 1.00)" stroke="none"></circle><circle r="2.5" cx="329.4117647058824" cy="266.6666666666667" fill="hsl(316, 73%, 52%)" stroke="none"></circle><circle r="2.5" cx="376.47058823529414" cy="266.6666666666667" fill="hsla(261, 2%, 13%, 1.00)" stroke="none"></circle><circle r="2.5" cx="423.5294117647059" cy="266.6666666666667" fill="hsl(316, 73%, 52%)" stroke="none"></circle><circle r="2.5" cx="470.5882352941177" cy="266.6666666666667" fill="hsla(261, 2%, 13%, 1.00)" stroke="none"></circle><circle r="2.5" cx="517.6470588235295" cy="266.6666666666667" fill="hsl(316, 73%, 52%)" stroke="none"></circle><circle r="2.5" cx="564.7058823529412" cy="266.6666666666667" fill="hsla(261, 2%, 13%, 1.00)" stroke="none"></circle><circle r="2.5" cx="611.7647058823529" cy="266.6666666666667" fill="hsl(316, 73%, 52%)" stroke="none"></circle><circle r="2.5" cx="658.8235294117646" cy="266.6666666666667" fill="hsla(261, 2%, 13%, 1.00)" stroke="none"></circle><circle r="2.5" cx="705.8823529411764" cy="266.6666666666667" fill="hsl(316, 73%, 52%)" stroke="none"></circle><circle r="2.5" cx="752.9411764705881" cy="266.6666666666667" fill="hsla(261, 2%, 13%, 1.00)" stroke="none"></circle><circle r="2.5" cx="799.9999999999998" cy="266.6666666666667" fill="hsl(316, 73%, 52%)" stroke="none"></circle><circle r="2.5" cx="0" cy="311.11111111111114" fill="hsla(261, 2%, 13%, 1.00)" stroke="none"></circle><circle r="2.5" cx="47.05882352941177" cy="311.11111111111114" fill="hsl(316, 73%, 52%)" stroke="none"></circle><circle r="2.5" cx="94.11764705882354" cy="311.11111111111114" fill="hsla(261, 2%, 13%, 1.00)" stroke="none"></circle><circle r="2.5" cx="141.1764705882353" cy="311.11111111111114" fill="hsl(316, 73%, 52%)" stroke="none"></circle><circle r="2.5" cx="188.23529411764707" cy="311.11111111111114" fill="hsla(261, 2%, 13%, 1.00)" stroke="none"></circle><circle r="2.5" cx="235.29411764705884" cy="311.11111111111114" fill="hsl(316, 73%, 52%)" stroke="none"></circle><circle r="2.5" cx="282.3529411764706" cy="311.11111111111114" fill="hsla(261, 2%, 13%, 1.00)" stroke="none"></circle><circle r="2.5" cx="329.4117647058824" cy="311.11111111111114" fill="hsl(316, 73%, 52%)" stroke="none"></circle><circle r="2.5" cx="376.47058823529414" cy="311.11111111111114" fill="hsla(261, 2%, 13%, 1.00)" stroke="none"></circle><circle r="2.5" cx="423.5294117647059" cy="311.11111111111114" fill="hsl(316, 73%, 52%)" stroke="none"></circle><circle r="2.5" cx="470.5882352941177" cy="311.11111111111114" fill="hsla(261, 2%, 13%, 1.00)" stroke="none"></circle><circle r="2.5" cx="517.6470588235295" cy="311.11111111111114" fill="hsl(316, 73%, 52%)" stroke="none"></circle><circle r="2.5" cx="564.7058823529412" cy="311.11111111111114" fill="hsla(261, 2%, 13%, 1.00)" stroke="none"></circle><circle r="2.5" cx="611.7647058823529" cy="311.11111111111114" fill="hsl(316, 73%, 52%)" stroke="none"></circle><circle r="2.5" cx="658.8235294117646" cy="311.11111111111114" fill="hsla(261, 2%, 13%, 1.00)" stroke="none"></circle><circle r="2.5" cx="705.8823529411764" cy="311.11111111111114" fill="hsl(316, 73%, 52%)" stroke="none"></circle><circle r="2.5" cx="752.9411764705881" cy="311.11111111111114" fill="hsla(261, 2%, 13%, 1.00)" stroke="none"></circle><circle r="2.5" cx="799.9999999999998" cy="311.11111111111114" fill="hsl(316, 73%, 52%)" stroke="none"></circle><circle r="2.5" cx="0" cy="355.5555555555556" fill="hsla(261, 2%, 13%, 1.00)" stroke="none"></circle><circle r="2.5" cx="47.05882352941177" cy="355.5555555555556" fill="hsl(316, 73%, 52%)" stroke="none"></circle><circle r="2.5" cx="94.11764705882354" cy="355.5555555555556" fill="hsla(261, 2%, 13%, 1.00)" stroke="none"></circle><circle r="2.5" cx="141.1764705882353" cy="355.5555555555556" fill="hsl(316, 73%, 52%)" stroke="none"></circle><circle r="2.5" cx="188.23529411764707" cy="355.5555555555556" fill="hsla(261, 2%, 13%, 1.00)" stroke="none"></circle><circle r="2.5" cx="235.29411764705884" cy="355.5555555555556" fill="hsl(316, 73%, 52%)" stroke="none"></circle><circle r="2.5" cx="282.3529411764706" cy="355.5555555555556" fill="hsla(261, 2%, 13%, 1.00)" stroke="none"></circle><circle r="2.5" cx="329.4117647058824" cy="355.5555555555556" fill="hsl(316, 73%, 52%)" stroke="none"></circle><circle r="2.5" cx="376.47058823529414" cy="355.5555555555556" fill="hsla(261, 2%, 13%, 1.00)" stroke="none"></circle><circle r="2.5" cx="423.5294117647059" cy="355.5555555555556" fill="hsl(316, 73%, 52%)" stroke="none"></circle><circle r="2.5" cx="470.5882352941177" cy="355.5555555555556" fill="hsla(261, 2%, 13%, 1.00)" stroke="none"></circle><circle r="2.5" cx="517.6470588235295" cy="355.5555555555556" fill="hsl(316, 73%, 52%)" stroke="none"></circle><circle r="2.5" cx="564.7058823529412" cy="355.5555555555556" fill="hsla(261, 2%, 13%, 1.00)" stroke="none"></circle><circle r="2.5" cx="611.7647058823529" cy="355.5555555555556" fill="hsl(316, 73%, 52%)" stroke="none"></circle><circle r="2.5" cx="658.8235294117646" cy="355.5555555555556" fill="hsla(261, 2%, 13%, 1.00)" stroke="none"></circle><circle r="2.5" cx="705.8823529411764" cy="355.5555555555556" fill="hsl(316, 73%, 52%)" stroke="none"></circle><circle r="2.5" cx="752.9411764705881" cy="355.5555555555556" fill="hsla(261, 2%, 13%, 1.00)" stroke="none"></circle><circle r="2.5" cx="799.9999999999998" cy="355.5555555555556" fill="hsl(316, 73%, 52%)" stroke="none"></circle><circle r="2.5" cx="0" cy="400.00000000000006" fill="hsla(261, 2%, 13%, 1.00)" stroke="none"></circle><circle r="2.5" cx="47.05882352941177" cy="400.00000000000006" fill="hsl(316, 73%, 52%)" stroke="none"></circle><circle r="2.5" cx="94.11764705882354" cy="400.00000000000006" fill="hsla(261, 2%, 13%, 1.00)" stroke="none"></circle><circle r="2.5" cx="141.1764705882353" cy="400.00000000000006" fill="hsl(316, 73%, 52%)" stroke="none"></circle><circle r="2.5" cx="188.23529411764707" cy="400.00000000000006" fill="hsla(261, 2%, 13%, 1.00)" stroke="none"></circle><circle r="2.5" cx="235.29411764705884" cy="400.00000000000006" fill="hsl(316, 73%, 52%)" stroke="none"></circle><circle r="2.5" cx="282.3529411764706" cy="400.00000000000006" fill="hsla(261, 2%, 13%, 1.00)" stroke="none"></circle><circle r="2.5" cx="329.4117647058824" cy="400.00000000000006" fill="hsl(316, 73%, 52%)" stroke="none"></circle><circle r="2.5" cx="376.47058823529414" cy="400.00000000000006" fill="hsla(261, 2%, 13%, 1.00)" stroke="none"></circle><circle r="2.5" cx="423.5294117647059" cy="400.00000000000006" fill="hsl(316, 73%, 52%)" stroke="none"></circle><circle r="2.5" cx="470.5882352941177" cy="400.00000000000006" fill="hsla(261, 2%, 13%, 1.00)" stroke="none"></circle><circle r="2.5" cx="517.6470588235295" cy="400.00000000000006" fill="hsl(316, 73%, 52%)" stroke="none"></circle><circle r="2.5" cx="564.7058823529412" cy="400.00000000000006" fill="hsla(261, 2%, 13%, 1.00)" stroke="none"></circle><circle r="2.5" cx="611.7647058823529" cy="400.00000000000006" fill="hsl(316, 73%, 52%)" stroke="none"></circle><circle r="2.5" cx="658.8235294117646" cy="400.00000000000006" fill="hsla(261, 2%, 13%, 1.00)" stroke="none"></circle><circle r="2.5" cx="705.8823529411764" cy="400.00000000000006" fill="hsl(316, 73%, 52%)" stroke="none"></circle><circle r="2.5" cx="752.9411764705881" cy="400.00000000000006" fill="hsla(261, 2%, 13%, 1.00)" stroke="none"></circle><circle r="2.5" cx="799.9999999999998" cy="400.00000000000006" fill="hsl(316, 73%, 52%)" stroke="none"></circle><circle r="2.5" cx="0" cy="444.4444444444445" fill="hsla(261, 2%, 13%, 1.00)" stroke="none"></circle><circle r="2.5" cx="47.05882352941177" cy="444.4444444444445" fill="hsl(316, 73%, 52%)" stroke="none"></circle><circle r="2.5" cx="94.11764705882354" cy="444.4444444444445" fill="hsla(261, 2%, 13%, 1.00)" stroke="none"></circle><circle r="2.5" cx="141.1764705882353" cy="444.4444444444445" fill="hsl(316, 73%, 52%)" stroke="none"></circle><circle r="2.5" cx="188.23529411764707" cy="444.4444444444445" fill="hsla(261, 2%, 13%, 1.00)" stroke="none"></circle><circle r="2.5" cx="235.29411764705884" cy="444.4444444444445" fill="hsl(316, 73%, 52%)" stroke="none"></circle><circle r="2.5" cx="282.3529411764706" cy="444.4444444444445" fill="hsla(261, 2%, 13%, 1.00)" stroke="none"></circle><circle r="2.5" cx="329.4117647058824" cy="444.4444444444445" fill="hsl(316, 73%, 52%)" stroke="none"></circle><circle r="2.5" cx="376.47058823529414" cy="444.4444444444445" fill="hsla(261, 2%, 13%, 1.00)" stroke="none"></circle><circle r="2.5" cx="423.5294117647059" cy="444.4444444444445" fill="hsl(316, 73%, 52%)" stroke="none"></circle><circle r="2.5" cx="470.5882352941177" cy="444.4444444444445" fill="hsla(261, 2%, 13%, 1.00)" stroke="none"></circle><circle r="2.5" cx="517.6470588235295" cy="444.4444444444445" fill="hsl(316, 73%, 52%)" stroke="none"></circle><circle r="2.5" cx="564.7058823529412" cy="444.4444444444445" fill="hsla(261, 2%, 13%, 1.00)" stroke="none"></circle><circle r="2.5" cx="611.7647058823529" cy="444.4444444444445" fill="hsl(316, 73%, 52%)" stroke="none"></circle><circle r="2.5" cx="658.8235294117646" cy="444.4444444444445" fill="hsla(261, 2%, 13%, 1.00)" stroke="none"></circle><circle r="2.5" cx="705.8823529411764" cy="444.4444444444445" fill="hsl(316, 73%, 52%)" stroke="none"></circle><circle r="2.5" cx="752.9411764705881" cy="444.4444444444445" fill="hsla(261, 2%, 13%, 1.00)" stroke="none"></circle><circle r="2.5" cx="799.9999999999998" cy="444.4444444444445" fill="hsl(316, 73%, 52%)" stroke="none"></circle><circle r="2.5" cx="0" cy="488.88888888888897" fill="hsla(261, 2%, 13%, 1.00)" stroke="none"></circle><circle r="2.5" cx="47.05882352941177" cy="488.88888888888897" fill="hsl(316, 73%, 52%)" stroke="none"></circle><circle r="2.5" cx="94.11764705882354" cy="488.88888888888897" fill="hsla(261, 2%, 13%, 1.00)" stroke="none"></circle><circle r="2.5" cx="141.1764705882353" cy="488.88888888888897" fill="hsl(316, 73%, 52%)" stroke="none"></circle><circle r="2.5" cx="188.23529411764707" cy="488.88888888888897" fill="hsla(261, 2%, 13%, 1.00)" stroke="none"></circle><circle r="2.5" cx="235.29411764705884" cy="488.88888888888897" fill="hsl(316, 73%, 52%)" stroke="none"></circle><circle r="2.5" cx="282.3529411764706" cy="488.88888888888897" fill="hsla(261, 2%, 13%, 1.00)" stroke="none"></circle><circle r="2.5" cx="329.4117647058824" cy="488.88888888888897" fill="hsl(316, 73%, 52%)" stroke="none"></circle><circle r="2.5" cx="376.47058823529414" cy="488.88888888888897" fill="hsla(261, 2%, 13%, 1.00)" stroke="none"></circle><circle r="2.5" cx="423.5294117647059" cy="488.88888888888897" fill="hsl(316, 73%, 52%)" stroke="none"></circle><circle r="2.5" cx="470.5882352941177" cy="488.88888888888897" fill="hsla(261, 2%, 13%, 1.00)" stroke="none"></circle><circle r="2.5" cx="517.6470588235295" cy="488.88888888888897" fill="hsl(316, 73%, 52%)" stroke="none"></circle><circle r="2.5" cx="564.7058823529412" cy="488.88888888888897" fill="hsla(261, 2%, 13%, 1.00)" stroke="none"></circle><circle r="2.5" cx="611.7647058823529" cy="488.88888888888897" fill="hsl(316, 73%, 52%)" stroke="none"></circle><circle r="2.5" cx="658.8235294117646" cy="488.88888888888897" fill="hsla(261, 2%, 13%, 1.00)" stroke="none"></circle><circle r="2.5" cx="705.8823529411764" cy="488.88888888888897" fill="hsl(316, 73%, 52%)" stroke="none"></circle><circle r="2.5" cx="752.9411764705881" cy="488.88888888888897" fill="hsla(261, 2%, 13%, 1.00)" stroke="none"></circle><circle r="2.5" cx="799.9999999999998" cy="488.88888888888897" fill="hsl(316, 73%, 52%)" stroke="none"></circle><circle r="2.5" cx="0" cy="533.3333333333334" fill="hsla(261, 2%, 13%, 1.00)" stroke="none"></circle><circle r="2.5" cx="47.05882352941177" cy="533.3333333333334" fill="hsl(316, 73%, 52%)" stroke="none"></circle><circle r="2.5" cx="94.11764705882354" cy="533.3333333333334" fill="hsla(261, 2%, 13%, 1.00)" stroke="none"></circle><circle r="2.5" cx="141.1764705882353" cy="533.3333333333334" fill="hsl(316, 73%, 52%)" stroke="none"></circle><circle r="2.5" cx="188.23529411764707" cy="533.3333333333334" fill="hsla(261, 2%, 13%, 1.00)" stroke="none"></circle><circle r="2.5" cx="235.29411764705884" cy="533.3333333333334" fill="hsl(316, 73%, 52%)" stroke="none"></circle><circle r="2.5" cx="282.3529411764706" cy="533.3333333333334" fill="hsla(261, 2%, 13%, 1.00)" stroke="none"></circle><circle r="2.5" cx="329.4117647058824" cy="533.3333333333334" fill="hsl(316, 73%, 52%)" stroke="none"></circle><circle r="2.5" cx="376.47058823529414" cy="533.3333333333334" fill="hsla(261, 2%, 13%, 1.00)" stroke="none"></circle><circle r="2.5" cx="423.5294117647059" cy="533.3333333333334" fill="hsl(316, 73%, 52%)" stroke="none"></circle><circle r="2.5" cx="470.5882352941177" cy="533.3333333333334" fill="hsla(261, 2%, 13%, 1.00)" stroke="none"></circle><circle r="2.5" cx="517.6470588235295" cy="533.3333333333334" fill="hsl(316, 73%, 52%)" stroke="none"></circle><circle r="2.5" cx="564.7058823529412" cy="533.3333333333334" fill="hsla(261, 2%, 13%, 1.00)" stroke="none"></circle><circle r="2.5" cx="611.7647058823529" cy="533.3333333333334" fill="hsl(316, 73%, 52%)" stroke="none"></circle><circle r="2.5" cx="658.8235294117646" cy="533.3333333333334" fill="hsla(261, 2%, 13%, 1.00)" stroke="none"></circle><circle r="2.5" cx="705.8823529411764" cy="533.3333333333334" fill="hsl(316, 73%, 52%)" stroke="none"></circle><circle r="2.5" cx="752.9411764705881" cy="533.3333333333334" fill="hsla(261, 2%, 13%, 1.00)" stroke="none"></circle><circle r="2.5" cx="799.9999999999998" cy="533.3333333333334" fill="hsl(316, 73%, 52%)" stroke="none"></circle><circle r="2.5" cx="0" cy="577.7777777777778" fill="hsla(261, 2%, 13%, 1.00)" stroke="none"></circle><circle r="2.5" cx="47.05882352941177" cy="577.7777777777778" fill="hsl(316, 73%, 52%)" stroke="none"></circle><circle r="2.5" cx="94.11764705882354" cy="577.7777777777778" fill="hsla(261, 2%, 13%, 1.00)" stroke="none"></circle><circle r="2.5" cx="141.1764705882353" cy="577.7777777777778" fill="hsl(316, 73%, 52%)" stroke="none"></circle><circle r="2.5" cx="188.23529411764707" cy="577.7777777777778" fill="hsla(261, 2%, 13%, 1.00)" stroke="none"></circle><circle r="2.5" cx="235.29411764705884" cy="577.7777777777778" fill="hsl(316, 73%, 52%)" stroke="none"></circle><circle r="2.5" cx="282.3529411764706" cy="577.7777777777778" fill="hsla(261, 2%, 13%, 1.00)" stroke="none"></circle><circle r="2.5" cx="329.4117647058824" cy="577.7777777777778" fill="hsl(316, 73%, 52%)" stroke="none"></circle><circle r="2.5" cx="376.47058823529414" cy="577.7777777777778" fill="hsla(261, 2%, 13%, 1.00)" stroke="none"></circle><circle r="2.5" cx="423.5294117647059" cy="577.7777777777778" fill="hsl(316, 73%, 52%)" stroke="none"></circle><circle r="2.5" cx="470.5882352941177" cy="577.7777777777778" fill="hsla(261, 2%, 13%, 1.00)" stroke="none"></circle><circle r="2.5" cx="517.6470588235295" cy="577.7777777777778" fill="hsl(316, 73%, 52%)" stroke="none"></circle><circle r="2.5" cx="564.7058823529412" cy="577.7777777777778" fill="hsla(261, 2%, 13%, 1.00)" stroke="none"></circle><circle r="2.5" cx="611.7647058823529" cy="577.7777777777778" fill="hsl(316, 73%, 52%)" stroke="none"></circle><circle r="2.5" cx="658.8235294117646" cy="577.7777777777778" fill="hsla(261, 2%, 13%, 1.00)" stroke="none"></circle><circle r="2.5" cx="705.8823529411764" cy="577.7777777777778" fill="hsl(316, 73%, 52%)" stroke="none"></circle><circle r="2.5" cx="752.9411764705881" cy="577.7777777777778" fill="hsla(261, 2%, 13%, 1.00)" stroke="none"></circle><circle r="2.5" cx="799.9999999999998" cy="577.7777777777778" fill="hsl(316, 73%, 52%)" stroke="none"></circle><circle r="2.5" cx="0" cy="622.2222222222223" fill="hsla(261, 2%, 13%, 1.00)" stroke="none"></circle><circle r="2.5" cx="47.05882352941177" cy="622.2222222222223" fill="hsl(316, 73%, 52%)" stroke="none"></circle><circle r="2.5" cx="94.11764705882354" cy="622.2222222222223" fill="hsla(261, 2%, 13%, 1.00)" stroke="none"></circle><circle r="2.5" cx="141.1764705882353" cy="622.2222222222223" fill="hsl(316, 73%, 52%)" stroke="none"></circle><circle r="2.5" cx="188.23529411764707" cy="622.2222222222223" fill="hsla(261, 2%, 13%, 1.00)" stroke="none"></circle><circle r="2.5" cx="235.29411764705884" cy="622.2222222222223" fill="hsl(316, 73%, 52%)" stroke="none"></circle><circle r="2.5" cx="282.3529411764706" cy="622.2222222222223" fill="hsla(261, 2%, 13%, 1.00)" stroke="none"></circle><circle r="2.5" cx="329.4117647058824" cy="622.2222222222223" fill="hsl(316, 73%, 52%)" stroke="none"></circle><circle r="2.5" cx="376.47058823529414" cy="622.2222222222223" fill="hsla(261, 2%, 13%, 1.00)" stroke="none"></circle><circle r="2.5" cx="423.5294117647059" cy="622.2222222222223" fill="hsl(316, 73%, 52%)" stroke="none"></circle><circle r="2.5" cx="470.5882352941177" cy="622.2222222222223" fill="hsla(261, 2%, 13%, 1.00)" stroke="none"></circle><circle r="2.5" cx="517.6470588235295" cy="622.2222222222223" fill="hsl(316, 73%, 52%)" stroke="none"></circle><circle r="2.5" cx="564.7058823529412" cy="622.2222222222223" fill="hsla(261, 2%, 13%, 1.00)" stroke="none"></circle><circle r="2.5" cx="611.7647058823529" cy="622.2222222222223" fill="hsl(316, 73%, 52%)" stroke="none"></circle><circle r="2.5" cx="658.8235294117646" cy="622.2222222222223" fill="hsla(261, 2%, 13%, 1.00)" stroke="none"></circle><circle r="2.5" cx="705.8823529411764" cy="622.2222222222223" fill="hsl(316, 73%, 52%)" stroke="none"></circle><circle r="2.5" cx="752.9411764705881" cy="622.2222222222223" fill="hsla(261, 2%, 13%, 1.00)" stroke="none"></circle><circle r="2.5" cx="799.9999999999998" cy="622.2222222222223" fill="hsl(316, 73%, 52%)" stroke="none"></circle><circle r="2.5" cx="0" cy="666.6666666666667" fill="hsla(261, 2%, 13%, 1.00)" stroke="none"></circle><circle r="2.5" cx="47.05882352941177" cy="666.6666666666667" fill="hsl(316, 73%, 52%)" stroke="none"></circle><circle r="2.5" cx="94.11764705882354" cy="666.6666666666667" fill="hsla(261, 2%, 13%, 1.00)" stroke="none"></circle><circle r="2.5" cx="141.1764705882353" cy="666.6666666666667" fill="hsl(316, 73%, 52%)" stroke="none"></circle><circle r="2.5" cx="188.23529411764707" cy="666.6666666666667" fill="hsla(261, 2%, 13%, 1.00)" stroke="none"></circle><circle r="2.5" cx="235.29411764705884" cy="666.6666666666667" fill="hsl(316, 73%, 52%)" stroke="none"></circle><circle r="2.5" cx="282.3529411764706" cy="666.6666666666667" fill="hsla(261, 2%, 13%, 1.00)" stroke="none"></circle><circle r="2.5" cx="329.4117647058824" cy="666.6666666666667" fill="hsl(316, 73%, 52%)" stroke="none"></circle><circle r="2.5" cx="376.47058823529414" cy="666.6666666666667" fill="hsla(261, 2%, 13%, 1.00)" stroke="none"></circle><circle r="2.5" cx="423.5294117647059" cy="666.6666666666667" fill="hsl(316, 73%, 52%)" stroke="none"></circle><circle r="2.5" cx="470.5882352941177" cy="666.6666666666667" fill="hsla(261, 2%, 13%, 1.00)" stroke="none"></circle><circle r="2.5" cx="517.6470588235295" cy="666.6666666666667" fill="hsl(316, 73%, 52%)" stroke="none"></circle><circle r="2.5" cx="564.7058823529412" cy="666.6666666666667" fill="hsla(261, 2%, 13%, 1.00)" stroke="none"></circle><circle r="2.5" cx="611.7647058823529" cy="666.6666666666667" fill="hsl(316, 73%, 52%)" stroke="none"></circle><circle r="2.5" cx="658.8235294117646" cy="666.6666666666667" fill="hsla(261, 2%, 13%, 1.00)" stroke="none"></circle><circle r="2.5" cx="705.8823529411764" cy="666.6666666666667" fill="hsl(316, 73%, 52%)" stroke="none"></circle><circle r="2.5" cx="752.9411764705881" cy="666.6666666666667" fill="hsla(261, 2%, 13%, 1.00)" stroke="none"></circle><circle r="2.5" cx="799.9999999999998" cy="666.6666666666667" fill="hsl(316, 73%, 52%)" stroke="none"></circle><circle r="2.5" cx="0" cy="711.1111111111112" fill="hsla(261, 2%, 13%, 1.00)" stroke="none"></circle><circle r="2.5" cx="47.05882352941177" cy="711.1111111111112" fill="hsl(316, 73%, 52%)" stroke="none"></circle><circle r="2.5" cx="94.11764705882354" cy="711.1111111111112" fill="hsla(261, 2%, 13%, 1.00)" stroke="none"></circle><circle r="2.5" cx="141.1764705882353" cy="711.1111111111112" fill="hsl(316, 73%, 52%)" stroke="none"></circle><circle r="2.5" cx="188.23529411764707" cy="711.1111111111112" fill="hsla(261, 2%, 13%, 1.00)" stroke="none"></circle><circle r="2.5" cx="235.29411764705884" cy="711.1111111111112" fill="hsl(316, 73%, 52%)" stroke="none"></circle><circle r="2.5" cx="282.3529411764706" cy="711.1111111111112" fill="hsla(261, 2%, 13%, 1.00)" stroke="none"></circle><circle r="2.5" cx="329.4117647058824" cy="711.1111111111112" fill="hsl(316, 73%, 52%)" stroke="none"></circle><circle r="2.5" cx="376.47058823529414" cy="711.1111111111112" fill="hsla(261, 2%, 13%, 1.00)" stroke="none"></circle><circle r="2.5" cx="423.5294117647059" cy="711.1111111111112" fill="hsl(316, 73%, 52%)" stroke="none"></circle><circle r="2.5" cx="470.5882352941177" cy="711.1111111111112" fill="hsla(261, 2%, 13%, 1.00)" stroke="none"></circle><circle r="2.5" cx="517.6470588235295" cy="711.1111111111112" fill="hsl(316, 73%, 52%)" stroke="none"></circle><circle r="2.5" cx="564.7058823529412" cy="711.1111111111112" fill="hsla(261, 2%, 13%, 1.00)" stroke="none"></circle><circle r="2.5" cx="611.7647058823529" cy="711.1111111111112" fill="hsl(316, 73%, 52%)" stroke="none"></circle><circle r="2.5" cx="658.8235294117646" cy="711.1111111111112" fill="hsla(261, 2%, 13%, 1.00)" stroke="none"></circle><circle r="2.5" cx="705.8823529411764" cy="711.1111111111112" fill="hsl(316, 73%, 52%)" stroke="none"></circle><circle r="2.5" cx="752.9411764705881" cy="711.1111111111112" fill="hsla(261, 2%, 13%, 1.00)" stroke="none"></circle><circle r="2.5" cx="799.9999999999998" cy="711.1111111111112" fill="hsl(316, 73%, 52%)" stroke="none"></circle><circle r="2.5" cx="0" cy="755.5555555555557" fill="hsla(261, 2%, 13%, 1.00)" stroke="none"></circle><circle r="2.5" cx="47.05882352941177" cy="755.5555555555557" fill="hsl(316, 73%, 52%)" stroke="none"></circle><circle r="2.5" cx="94.11764705882354" cy="755.5555555555557" fill="hsla(261, 2%, 13%, 1.00)" stroke="none"></circle><circle r="2.5" cx="141.1764705882353" cy="755.5555555555557" fill="hsl(316, 73%, 52%)" stroke="none"></circle><circle r="2.5" cx="188.23529411764707" cy="755.5555555555557" fill="hsla(261, 2%, 13%, 1.00)" stroke="none"></circle><circle r="2.5" cx="235.29411764705884" cy="755.5555555555557" fill="hsl(316, 73%, 52%)" stroke="none"></circle><circle r="2.5" cx="282.3529411764706" cy="755.5555555555557" fill="hsla(261, 2%, 13%, 1.00)" stroke="none"></circle><circle r="2.5" cx="329.4117647058824" cy="755.5555555555557" fill="hsl(316, 73%, 52%)" stroke="none"></circle><circle r="2.5" cx="376.47058823529414" cy="755.5555555555557" fill="hsla(261, 2%, 13%, 1.00)" stroke="none"></circle><circle r="2.5" cx="423.5294117647059" cy="755.5555555555557" fill="hsl(316, 73%, 52%)" stroke="none"></circle><circle r="2.5" cx="470.5882352941177" cy="755.5555555555557" fill="hsla(261, 2%, 13%, 1.00)" stroke="none"></circle><circle r="2.5" cx="517.6470588235295" cy="755.5555555555557" fill="hsl(316, 73%, 52%)" stroke="none"></circle><circle r="2.5" cx="564.7058823529412" cy="755.5555555555557" fill="hsla(261, 2%, 13%, 1.00)" stroke="none"></circle><circle r="2.5" cx="611.7647058823529" cy="755.5555555555557" fill="hsl(316, 73%, 52%)" stroke="none"></circle><circle r="2.5" cx="658.8235294117646" cy="755.5555555555557" fill="hsla(261, 2%, 13%, 1.00)" stroke="none"></circle><circle r="2.5" cx="705.8823529411764" cy="755.5555555555557" fill="hsl(316, 73%, 52%)" stroke="none"></circle><circle r="2.5" cx="752.9411764705881" cy="755.5555555555557" fill="hsla(261, 2%, 13%, 1.00)" stroke="none"></circle><circle r="2.5" cx="799.9999999999998" cy="755.5555555555557" fill="hsl(316, 73%, 52%)" stroke="none"></circle><circle r="2.5" cx="0" cy="800.0000000000001" fill="hsla(261, 2%, 13%, 1.00)" stroke="none"></circle><circle r="2.5" cx="47.05882352941177" cy="800.0000000000001" fill="hsl(316, 73%, 52%)" stroke="none"></circle><circle r="2.5" cx="94.11764705882354" cy="800.0000000000001" fill="hsla(261, 2%, 13%, 1.00)" stroke="none"></circle><circle r="2.5" cx="141.1764705882353" cy="800.0000000000001" fill="hsl(316, 73%, 52%)" stroke="none"></circle><circle r="2.5" cx="188.23529411764707" cy="800.0000000000001" fill="hsla(261, 2%, 13%, 1.00)" stroke="none"></circle><circle r="2.5" cx="235.29411764705884" cy="800.0000000000001" fill="hsl(316, 73%, 52%)" stroke="none"></circle><circle r="2.5" cx="282.3529411764706" cy="800.0000000000001" fill="hsla(261, 2%, 13%, 1.00)" stroke="none"></circle><circle r="2.5" cx="329.4117647058824" cy="800.0000000000001" fill="hsl(316, 73%, 52%)" stroke="none"></circle><circle r="2.5" cx="376.47058823529414" cy="800.0000000000001" fill="hsla(261, 2%, 13%, 1.00)" stroke="none"></circle><circle r="2.5" cx="423.5294117647059" cy="800.0000000000001" fill="hsl(316, 73%, 52%)" stroke="none"></circle><circle r="2.5" cx="470.5882352941177" cy="800.0000000000001" fill="hsla(261, 2%, 13%, 1.00)" stroke="none"></circle><circle r="2.5" cx="517.6470588235295" cy="800.0000000000001" fill="hsl(316, 73%, 52%)" stroke="none"></circle><circle r="2.5" cx="564.7058823529412" cy="800.0000000000001" fill="hsla(261, 2%, 13%, 1.00)" stroke="none"></circle><circle r="2.5" cx="611.7647058823529" cy="800.0000000000001" fill="hsl(316, 73%, 52%)" stroke="none"></circle><circle r="2.5" cx="658.8235294117646" cy="800.0000000000001" fill="hsla(261, 2%, 13%, 1.00)" stroke="none"></circle><circle r="2.5" cx="705.8823529411764" cy="800.0000000000001" fill="hsl(316, 73%, 52%)" stroke="none"></circle><circle r="2.5" cx="752.9411764705881" cy="800.0000000000001" fill="hsla(261, 2%, 13%, 1.00)" stroke="none"></circle><circle r="2.5" cx="799.9999999999998" cy="800.0000000000001" fill="hsl(316, 73%, 52%)" stroke="none"></circle></g></svg>